# xmcd
#
# Track frame offsets:
#	150
#	14230
#	38917
#	60055
#	109279
#	124777
#	145898
#	150156
#	180223
#	217338
#	241719
#
# Disc length: 4275 seconds
#
# Revision: 1
# Processed by: cddbd v1.5.2PL0 Copyright (c) Steve Scherf et al.
# Submitted via: audiograbber 1.83.01
#
DISCID=8d10b10b
DTITLE=Grateful Dead - 73-02-22 Assembly Hall, Champaign-Urbana IL
DYEAR=1900
DGENRE=
TTITLE0=Promised Land
TTITLE1=They Love Each Other
TTITLE2=El Paso
TTITLE3=Bird Song
TTITLE4=Mexicali Blues
TTITLE5=Deal
TTITLE6=Beer Barrel Polka
TTITLE7=Looks Like Rain
TTITLE8=Tennessee Jed
TTITLE9=Box Of Rain
TTITLE10=Playing In The Band
EXTD=
EXTT0=
EXTT1=
EXTT2=
EXTT3=
EXTT4=
EXTT5=
EXTT6=
EXTT7=
EXTT8=
EXTT9=
EXTT10=
PLAYORDER=
